<?xml version="1.0" encoding="UTF-8"?>
<svg version="1.1" xmlns="http://www.w3.org/2000/svg" width="500" height="500">
<path d="M0 0 C2.61020813 1.47304025 4.67699267 3.07239817 7 5 C7.721875 4.38125 8.44375 3.7625 9.1875 3.125 C13.36007248 -0.02761032 16.21365902 -1.23500518 21.4375 -0.9375 C26.3451359 -0.24225158 28.63585953 1.38970291 32 5 C34.62472448 9.72327127 34.28903838 14.57015636 34.265625 19.82421875 C34.26753845 20.7668306 34.2694519 21.70944244 34.27142334 22.68061829 C34.27278107 24.66672026 34.26911346 26.65283122 34.26074219 28.63891602 C34.25000101 31.68721252 34.26066984 34.73492447 34.2734375 37.78320312 C34.27211654 39.71354297 34.26955545 41.64388245 34.265625 43.57421875 C34.26967346 44.48878342 34.27372192 45.40334808 34.27789307 46.34562683 C34.26843658 47.61253105 34.26843658 47.61253105 34.25878906 48.9050293 C34.25719788 49.64939743 34.25560669 50.39376556 34.25396729 51.16069031 C34 53 34 53 32 55 C29.72265625 55.265625 29.72265625 55.265625 27.0625 55.25 C26.18722656 55.25515625 25.31195313 55.2603125 24.41015625 55.265625 C22 55 22 55 19 53 C18.67453222 50.18086907 18.53498068 47.57033089 18.5234375 44.74609375 C18.50785797 43.93004166 18.49227844 43.11398956 18.47622681 42.27320862 C18.4286047 39.66131559 18.40090841 37.0496912 18.375 34.4375 C18.33856273 31.82192704 18.29799062 29.20650816 18.25234985 26.59107971 C18.22503446 24.9618884 18.20372205 23.33258388 18.18881226 21.70323181 C18.48184084 18.05071268 18.48184084 18.05071268 17 15 C14.54190002 14.7499227 14.54190002 14.7499227 12 15 C9.10759379 17.89240621 9.68367474 20.86996761 9.65625 24.74609375 C9.6416272 25.51301041 9.62700439 26.27992706 9.61193848 27.07008362 C9.56536055 29.52583611 9.53120703 31.98150689 9.5 34.4375 C9.45889298 37.6656659 9.40521846 40.89325859 9.34375 44.12109375 C9.3384729 44.86491806 9.3331958 45.60874237 9.32775879 46.37510681 C9.25552501 50.11241862 9.12556412 51.81165382 7 55 C4.46875 55.328125 4.46875 55.328125 1.5 55.25 C0.5203125 55.23453125 -0.459375 55.2190625 -1.46875 55.203125 C-4 55 -4 55 -6 54 C-6.02505615 52.88963379 -6.0501123 51.77926758 -6.07592773 50.63525391 C-6.16994915 46.52396681 -6.27018257 42.41285077 -6.37231445 38.30175781 C-6.4156833 36.52087397 -6.45735694 34.73994802 -6.49731445 32.95898438 C-6.5549699 30.40221452 -6.6186777 27.84565702 -6.68359375 25.2890625 C-6.70030624 24.49005524 -6.71701874 23.69104797 -6.73423767 22.86782837 C-6.75392991 18.80193632 -6.75392991 18.80193632 -8 15 C-10.91634129 14.7497843 -10.91634129 14.7497843 -14 15 C-16.50442112 18.75663168 -16.34885437 21.81008125 -16.4140625 26.16796875 C-16.43342865 26.96278152 -16.4527948 27.7575943 -16.4727478 28.57649231 C-16.53249442 31.11338595 -16.57890883 33.65032509 -16.625 36.1875 C-16.66318435 37.90822284 -16.70223635 39.62892665 -16.7421875 41.34960938 C-16.83819179 45.56625165 -16.92224076 49.7829834 -17 54 C-19.45382134 55.22691067 -21.19984103 55.20175931 -23.9375 55.25 C-24.81277344 55.27578125 -25.68804687 55.3015625 -26.58984375 55.328125 C-29.53869224 54.92666102 -30.20689223 54.3309684 -32 52 C-32.38095093 49.75450134 -32.38095093 49.75450134 -32.38818359 47.10131836 C-32.39764008 46.10696274 -32.40709656 45.11260712 -32.4168396 44.08811951 C-32.41076691 43.01618851 -32.40469421 41.94425751 -32.3984375 40.83984375 C-32.40130768 39.73902969 -32.40417786 38.63821564 -32.40713501 37.50404358 C-32.40917719 35.17643723 -32.40363661 32.84881379 -32.39111328 30.52124023 C-32.37504729 26.94801706 -32.3909654 23.37592248 -32.41015625 19.80273438 C-32.40817415 17.54426832 -32.40433116 15.28580298 -32.3984375 13.02734375 C-32.40754654 11.4164109 -32.40754654 11.4164109 -32.4168396 9.77293396 C-32.40265488 8.28612877 -32.40265488 8.28612877 -32.38818359 6.76928711 C-32.38579681 5.89453232 -32.38341003 5.01977753 -32.38095093 4.11851501 C-32.25523712 3.41940506 -32.12952332 2.7202951 -32 2 C-28.842224 -0.105184 -28.04602866 -0.25289344 -24.4375 -0.1875 C-23.65246094 -0.18105469 -22.86742187 -0.17460937 -22.05859375 -0.16796875 C-20 0 -20 0 -18 1 C-17.67 1.99 -17.34 2.98 -17 4 C-16.52691406 3.62746094 -16.05382812 3.25492188 -15.56640625 2.87109375 C-10.25342837 -0.92980855 -6.31552242 -2.10893338 0 0 Z " fill="#FEFDFD" transform="translate(180,204)"/>
<path d="M0 0 C3.86722773 1.9686114 6.0021504 5.43141863 7.375 9.4375 C7.92291315 14.14460566 7.93506673 18.82734691 7.9375 23.5625 C7.94644729 26.06518606 7.96808121 28.56786686 8.00390625 31.0703125 C8.00463135 32.17262207 8.00535645 33.27493164 8.00610352 34.41064453 C8.41953985 37.80295673 9.50395695 39.62105904 11.375 42.4375 C11.796875 45.0078125 11.796875 45.0078125 11.375 47.4375 C9.765625 49.4921875 9.765625 49.4921875 7.625 51.3125 C6.92890625 51.92867188 6.2328125 52.54484375 5.515625 53.1796875 C3.375 54.4375 3.375 54.4375 1.28125 54.26171875 C-1.40742744 53.09919633 -3.41759685 51.33831938 -5.625 49.4375 C-6.388125 50.076875 -7.15125 50.71625 -7.9375 51.375 C-13.24762678 55.45021358 -19.1867652 55.02589497 -25.625 54.4375 C-30.56281067 52.32129543 -32.8173238 49.37088299 -34.9296875 44.578125 C-36.62487536 39.35923203 -36.19375189 35.16046335 -33.9375 30.1875 C-30.43516031 23.99478172 -25.95059132 21.8196087 -19.2734375 19.96484375 C-15.30983829 19.17563152 -11.65564599 19.24246874 -7.625 19.4375 C-8.285 17.1275 -8.945 14.8175 -9.625 12.4375 C-12.91196233 11.63796862 -14.33523192 11.34091064 -17.625 12.4375 C-19.02212274 14.39347184 -20.36279907 16.39186401 -21.625 18.4375 C-23.2504308 18.29654936 -24.87534051 18.14957913 -26.5 18 C-27.40492188 17.91878906 -28.30984375 17.83757812 -29.2421875 17.75390625 C-31.625 17.4375 -31.625 17.4375 -33.625 16.4375 C-33.97342354 12.77905285 -33.75632751 10.70562701 -32.125 7.375 C-24.38674244 -1.71745263 -11.13995038 -4.92769072 0 0 Z M-18.625 32.4375 C-20.03941874 35.26633747 -19.94400332 37.31126745 -19.625 40.4375 C-18.06702118 42.58532671 -18.06702118 42.58532671 -15.625 43.4375 C-12.34893829 42.79826845 -10.9744501 41.84720011 -8.8125 39.3125 C-7.22231162 35.46257023 -7.4141426 32.58436216 -7.625 28.4375 C-12.43793731 27.87127208 -14.86976454 29.53572715 -18.625 32.4375 Z " fill="#FEFEFE" transform="translate(255.625,204.5625)"/>
<path d="M0 0 C3.24941764 3.08443617 4.6368095 6.54835246 5.15429688 10.95947266 C5.16138672 12.11753418 5.16847656 13.2755957 5.17578125 14.46875 C5.19769531 15.73976562 5.21960938 17.01078125 5.2421875 18.3203125 C5.25590625 20.31933022 5.26960748 22.31834914 5.28076172 24.31738281 C5.2964817 26.26380276 5.329658 28.210057 5.36328125 30.15625 C5.37037109 31.31205566 5.37746094 32.46786133 5.38476562 33.65869141 C5.80696359 36.97358838 6.63606349 38.19364928 8.76953125 40.6796875 C9.19140625 43.1875 9.19140625 43.1875 8.76953125 45.6796875 C7.16015625 47.734375 7.16015625 47.734375 5.01953125 49.5546875 C4.3234375 50.17085938 3.62734375 50.78703125 2.91015625 51.421875 C0.76953125 52.6796875 0.76953125 52.6796875 -1.32421875 52.50390625 C-4.01289619 51.34138383 -6.0230656 49.58050688 -8.23046875 47.6796875 C-8.99359375 48.3190625 -9.75671875 48.9584375 -10.54296875 49.6171875 C-15.8357173 53.67906429 -21.80837468 53.29981034 -28.23046875 52.6796875 C-32.3403625 50.66079233 -34.75517748 48.47881143 -37.23046875 44.6796875 C-39.04016733 38.04794395 -38.40319495 31.76282788 -35.23046875 25.6796875 C-30.85971572 20.62600431 -23.07083547 18.03333278 -16.515625 17.4296875 C-14.41891623 17.4296875 -12.32268417 17.54249305 -10.23046875 17.6796875 C-10.89046875 15.3696875 -11.55046875 13.0596875 -12.23046875 10.6796875 C-15.51743108 9.88015612 -16.94070067 9.58309814 -20.23046875 10.6796875 C-21.62759149 12.63565934 -22.96826782 14.63405151 -24.23046875 16.6796875 C-26.04339964 16.53931229 -27.85581305 16.39223861 -29.66796875 16.2421875 C-31.18197266 16.12037109 -31.18197266 16.12037109 -32.7265625 15.99609375 C-35.23046875 15.6796875 -35.23046875 15.6796875 -36.23046875 14.6796875 C-36.95009549 10.4647309 -36.12145598 7.99596006 -33.79296875 4.5546875 C-25.52838764 -5.45485157 -10.90135905 -6.37823302 0 0 Z M-21.23046875 30.6796875 C-22.66107003 33.54089006 -22.61739456 35.51979335 -22.23046875 38.6796875 C-19.83989933 40.6151023 -19.83989933 40.6151023 -17.23046875 41.6796875 C-14.71810991 40.35739338 -12.67612609 39.25267551 -10.91796875 36.9921875 C-9.88326059 33.5118055 -10.10968737 30.30312884 -10.23046875 26.6796875 C-15.04340606 26.11345958 -17.47523329 27.77791465 -21.23046875 30.6796875 Z " fill="#FEFEFE" transform="translate(134.23046875,206.3203125)"/>
<path d="M0 0 C4.81249135 0.55165813 8.30143227 1.97874721 12.5625 4.25 C22.19020232 9.21561352 31.98261513 12.85925663 42.4375 15.6875 C43.54484497 15.99131592 43.54484497 15.99131592 44.67456055 16.30126953 C57.098277 19.52098984 69.53809914 20.38110856 82.3125 20.3125 C83.0384436 20.31034485 83.76438721 20.3081897 84.5123291 20.30596924 C95.28275165 20.25472101 105.54718851 19.81365776 116 17 C116.86077148 16.77473633 117.72154297 16.54947266 118.60839844 16.31738281 C129.98779839 13.40299445 129.98779839 13.40299445 140.96484375 9.29296875 C144 8 144 8 146.4375 8.3125 C148 9 148 9 148.8125 10.6875 C149 13 149 13 146.98046875 15.39453125 C143.66116241 18.29620534 140.45198214 20.1160258 136.5 22 C135.79004883 22.34321289 135.08009766 22.68642578 134.34863281 23.04003906 C132.24054119 24.04537841 130.12349342 25.02767436 128 26 C126.93265625 26.48984375 125.8653125 26.9796875 124.765625 27.484375 C97.29831542 39.01210596 64.24863928 38.24312223 36.6328125 27.6015625 C24.21782617 22.12828896 13.15126195 16.05804912 3 7 C2.01 6.34 1.02 5.68 0 5 C-0.1875 2.375 -0.1875 2.375 0 0 Z " fill="#F89C1D" transform="translate(140,262)"/>
<path d="M0 0 C4.68993991 2.16984469 7.94749166 4.1588335 10 9 C11.58748674 17.53704468 11.21808587 26.58534865 11.24023438 35.24633789 C11.25011466 37.58969405 11.28131961 39.93223272 11.3125 42.27539062 C11.319016 43.76822403 11.32427194 45.2610636 11.328125 46.75390625 C11.3404718 47.45278458 11.3528186 48.1516629 11.36553955 48.87171936 C11.35644531 50.82641602 11.35644531 50.82641602 11 54 C7.74917327 56.16721782 6.70767847 56.27221018 2.9375 56.25 C2.05964844 56.25515625 1.18179687 56.2603125 0.27734375 56.265625 C-2 56 -2 56 -4 54 C-4.23340794 51.38662102 -4.34938098 48.87108919 -4.37890625 46.25390625 C-4.39590073 45.48698959 -4.4128952 44.72007294 -4.43040466 43.92991638 C-4.48361583 41.4741951 -4.52385134 39.0184903 -4.5625 36.5625 C-4.60645892 34.11016891 -4.65322329 31.65796758 -4.70530701 29.20579529 C-4.73719708 27.67892673 -4.764108 26.15194437 -4.78553772 24.62489319 C-4.84633674 21.49681858 -5.00360788 18.98917637 -6 16 C-7.98 16 -9.96 16 -12 16 C-14.46553949 19.78914489 -14.34631334 23.67773321 -14.4140625 28.046875 C-14.43342865 28.81807678 -14.4527948 29.58927856 -14.4727478 30.3838501 C-14.53237077 32.83912205 -14.57885914 35.29444133 -14.625 37.75 C-14.66319575 39.41798882 -14.70224841 41.08595826 -14.7421875 42.75390625 C-14.83805791 46.83577943 -14.92215235 50.91774493 -15 55 C-17.60179663 56.30089831 -19.5969188 56.16840078 -22.5 56.1875 C-23.4796875 56.20167969 -24.459375 56.21585937 -25.46875 56.23046875 C-28 56 -28 56 -30 54 C-30.25396729 51.83679199 -30.25396729 51.83679199 -30.25878906 49.12304688 C-30.26509338 48.10859497 -30.27139771 47.09414307 -30.27789307 46.0489502 C-30.2738446 44.94998413 -30.26979614 43.85101807 -30.265625 42.71875 C-30.26753845 41.59432495 -30.2694519 40.4698999 -30.27142334 39.31140137 C-30.27278617 36.93074317 -30.26908294 34.55007757 -30.26074219 32.16943359 C-30.25004429 28.51513047 -30.26063444 24.86131899 -30.2734375 21.20703125 C-30.27211592 18.89843641 -30.26955357 16.58984188 -30.265625 14.28125 C-30.26967346 13.18228394 -30.27372192 12.08331787 -30.27789307 10.9510498 C-30.27158875 9.9365979 -30.26528442 8.922146 -30.25878906 7.87695312 C-30.25719788 6.98141724 -30.25560669 6.08588135 -30.25396729 5.16320801 C-30 3 -30 3 -28 1 C-25.6875 0.76953125 -25.6875 0.76953125 -23 0.8125 C-21.6696875 0.82216797 -21.6696875 0.82216797 -20.3125 0.83203125 C-18 1 -18 1 -16 2 C-15.67 2.99 -15.34 3.98 -15 5 C-14.50371094 4.6390625 -14.00742187 4.278125 -13.49609375 3.90625 C-8.88658142 0.75743702 -5.74300634 -1.02553685 0 0 Z " fill="#FDFDFD" transform="translate(393,203)"/>
<path d="M0 0 C7.19081356 5.89979877 9.36887135 12.97272136 10.3125 21.984375 C10.71684056 31.7390909 8.22685056 40.16931365 1.7578125 47.5625 C-4.05656688 52.31737025 -9.47383872 52.52278045 -16.71484375 52.34765625 C-22.45438387 51.7402614 -24.84446474 49.20928108 -28.6875 45.1875 C-35.01106484 36.47123496 -35.8285162 27.09501079 -34.76171875 16.671875 C-33.60986058 10.01669445 -30.5893401 3.81410466 -25.19140625 -0.41796875 C-16.70818145 -5.47141664 -8.33304436 -5.1971107 0 0 Z M-16 9 C-19.11918803 14.1491358 -19.46167638 18.1637905 -19.375 24 C-19.38660156 24.78117187 -19.39820313 25.56234375 -19.41015625 26.3671875 C-19.3843688 31.47310165 -18.8258716 36.1741284 -15 40 C-12.62875402 40.58488562 -12.62875402 40.58488562 -10 40 C-5.6405108 35.04386538 -5.40735435 30.936042 -5.5625 24.5 C-5.55541016 23.67113281 -5.54832031 22.84226563 -5.54101562 21.98828125 C-5.59346477 16.91281744 -6.28528146 13.43572048 -9 9 C-11.31 9 -13.62 9 -16 9 Z " fill="#FEFEFE" transform="translate(348,207)"/>
<path d="M0 0 C1.08734436 -0.00855011 1.08734436 -0.00855011 2.19665527 -0.01727295 C3.72988424 -0.02672103 5.26313349 -0.03325617 6.79638672 -0.03710938 C9.14716677 -0.04683741 11.49708065 -0.0778699 13.84765625 -0.109375 C15.3359323 -0.11590288 16.82421461 -0.12115419 18.3125 -0.125 C19.01773804 -0.1373468 19.72297607 -0.1496936 20.44958496 -0.16241455 C22.43164062 -0.15332031 22.43164062 -0.15332031 25.65625 0.203125 C28.13082248 3.91498372 27.90094974 5.49265808 27.31103516 9.76025391 C26.14289965 14.11833142 23.56529464 17.3593646 20.84375 20.890625 C19.77425394 22.33167095 18.7052343 23.77307062 17.63671875 25.21484375 C17.12802246 25.88950684 16.61932617 26.56416992 16.09521484 27.25927734 C14.18041414 29.84591515 12.41064203 32.50569416 10.65625 35.203125 C11.38070313 35.31269531 12.10515625 35.42226562 12.8515625 35.53515625 C18.31912223 36.43183605 22.87911803 37.36266815 27.65625 40.203125 C27.65625 44.493125 27.65625 48.783125 27.65625 53.203125 C24.22121522 52.79092083 21.07731089 52.35408227 17.8125 51.18359375 C11.23641723 49.14077596 3.5624436 49.11058659 -2.84375 51.765625 C-6.57372635 53.29757957 -7.60984544 53.1685695 -11.34375 52.203125 C-12.43029517 42.32073795 -10.22986928 37.02456366 -4.34375 29.203125 C-3.1105035 27.43513053 -1.88118201 25.66439019 -0.65625 23.890625 C-0.11613281 23.13136719 0.42398437 22.37210938 0.98046875 21.58984375 C2.92116794 18.82581764 4.7913734 16.018723 6.65625 13.203125 C5.58503906 13.21472656 4.51382812 13.22632813 3.41015625 13.23828125 C2.01302257 13.24765799 0.61588701 13.25675831 -0.78125 13.265625 C-1.48830078 13.27400391 -2.19535156 13.28238281 -2.92382812 13.29101562 C-4.73068559 13.29966088 -6.53762603 13.25532511 -8.34375 13.203125 C-9.34375 12.203125 -9.34375 12.203125 -9.44140625 9.69921875 C-9.42400391 8.18521484 -9.42400391 8.18521484 -9.40625 6.640625 C-9.39722656 5.62871094 -9.38820313 4.61679688 -9.37890625 3.57421875 C-9.36730469 2.79175781 -9.35570312 2.00929687 -9.34375 1.203125 C-6.35474603 -0.29137698 -3.27917181 0.01976082 0 0 Z " fill="#FEFEFE" transform="translate(282.34375,203.796875)"/>
<path d="M0 0 C1.58473566 1.58473566 1.24662754 3.17693998 1.3125 5.375 C1.19861089 14.23304209 -2.18473295 21.54488898 -7.4375 28.5390625 C-9.25241325 30.23600639 -10.57429109 30.61314125 -13 31 C-12.44381435 22.93530802 -10.32162226 15.71377718 -8 8 C-15.26 8 -22.52 8 -30 8 C-30.33 6.68 -30.66 5.36 -31 4 C-20.82247436 -1.55137762 -11.32743759 -3.85132878 0 0 Z " fill="#F99F1F" transform="translate(302,260)"/>
<path d="M0 0 C0 0.66 0 1.32 0 2 C-3.3 3.32 -6.6 4.64 -10 6 C-10 6.99 -10 7.98 -10 9 C-10.99 8.67 -11.98 8.34 -13 8 C-12.80859375 6.140625 -12.80859375 6.140625 -12 4 C-9.78515625 2.734375 -9.78515625 2.734375 -7.0625 1.75 C-6.16660156 1.41484375 -5.27070313 1.0796875 -4.34765625 0.734375 C-2 0 -2 0 0 0 Z " fill="#FAB02D" transform="translate(284,259)"/>
</svg>
